<?xml version="1.0" encoding="utf-8"?>
<!-- Generator: Adobe Illustrator 24.0.2, SVG Export Plug-In . SVG Version: 6.00 Build 0)  -->
<svg version="1.1" id="Ebene_1" xmlns="http://www.w3.org/2000/svg" xmlns:xlink="http://www.w3.org/1999/xlink" x="0px" y="0px"
	 viewBox="0 0 100 100">
<title>Info</title>
<path d="M50,0.1C22.4,0.1,0.1,22.4,0.1,50S22.4,99.9,50,99.9S99.9,77.6,99.9,50S77.6,0.1,50,0.1z M50,93.3
	C26.1,93.3,6.7,73.9,6.7,50S26.1,6.7,50,6.7S93.3,26.1,93.3,50C93.2,73.9,73.9,93.2,50,93.3z M50,15.1c-19.3,0-34.9,15.6-34.9,34.9
	S30.7,84.9,50,84.9S84.9,69.3,84.9,50C84.9,30.7,69.3,15.1,50,15.1z M57.8,72.2c0,2.5-2,4.4-4.4,4.4c0,0,0,0,0,0h-6.7
	c-2.5,0-4.4-2-4.4-4.4c0,0,0,0,0,0V50c0-2.5,2-4.4,4.4-4.4c0,0,0,0,0,0h6.7c2.5,0,4.4,2,4.4,4.4c0,0,0,0,0,0V72.2z M50,38.9
	c-4.3,0-7.8-3.5-7.8-7.8s3.5-7.8,7.8-7.8s7.8,3.5,7.8,7.8S54.3,38.9,50,38.9z"/>
</svg>
