<?xml version="1.0" encoding="utf-8"?>
<!-- Generator: Adobe Illustrator 24.0.2, SVG Export Plug-In . SVG Version: 6.00 Build 0)  -->
<svg version="1.1" id="Ebene_1" xmlns="http://www.w3.org/2000/svg" xmlns:xlink="http://www.w3.org/1999/xlink" x="0px" y="0px"
	 viewBox="0 0 100 100" style="enable-background:new 0 0 100 100;" xml:space="preserve">
<g>
	<path d="M22.5,52.1h9.7c2.1,0,3.7,0.6,4.7,1.9c1,1.3,1.6,3,1.6,5.3c0,2.4-0.6,4.2-1.7,5.6c-1.1,1.3-2.9,2-5.2,2h-3.2v8.7h-5.8V52.1
		z M28.4,62.2h1.4c1.1,0,1.9-0.2,2.4-0.7c0.5-0.5,0.7-1.1,0.7-1.9c0-0.7-0.2-1.4-0.6-1.9c-0.4-0.5-1.1-0.8-2.2-0.8h-1.7
		C28.4,56.9,28.4,62.2,28.4,62.2z"/>
	<path d="M41.6,52.1h8.6c1.7,0,3.1,0.3,4.1,0.9c1,0.6,1.9,1.4,2.6,2.5c0.7,1.1,1.2,2.3,1.5,3.8c0.3,1.4,0.5,3,0.5,4.6
		c0,2.5-0.2,4.5-0.7,5.9c-0.5,1.4-1.1,2.5-1.9,3.5s-1.7,1.6-2.6,1.9c-1.3,0.4-2.4,0.6-3.5,0.6h-8.6V52.1z M47.4,57.5v12.9h1.4
		c1.2,0,2.1-0.2,2.6-0.5s0.9-0.9,1.2-1.8c0.3-0.8,0.4-2.2,0.4-4.1c0-2.5-0.3-4.2-1-5.1c-0.6-0.9-1.7-1.4-3.2-1.4
		C48.8,57.5,47.4,57.5,47.4,57.5z"/>
	<path d="M62,52.1h14.4v5.1h-8.5v4.1h7.3v4.8h-7.3v9.6H62V52.1z"/>
</g>
<path d="M85.9,25.7L64.9,5.4c-3-2.9-8.6-5.2-12.7-5.2H18c-5.1,0-9.3,4.2-9.3,9.3v81.1c0,5.1,4.2,9.3,9.3,9.3h64
	c5.1,0,9.3-4.2,9.3-9.3V38.4C91.2,34.2,88.9,28.7,85.9,25.7z M81.6,30.2c0.7,0.7,1.5,1.8,2,3H60.5c-1.7,0-3.1-1.4-3.1-3.1V7.7
	c1.3,0.6,2.5,1.3,3.3,2.1L81.6,30.2z M82,93.6H18c-1.7,0-3.1-1.4-3.1-3.1V9.4c0-1.7,1.4-3.1,3.1-3.1h33.2v23.7
	c0,5.1,4.2,9.3,9.3,9.3h24.6v51.2C85.1,92.3,83.7,93.6,82,93.6z"/>
</svg>
