<?xml version="1.0" encoding="utf-8"?>
<!-- Generator: Adobe Illustrator 24.0.2, SVG Export Plug-In . SVG Version: 6.00 Build 0)  -->
<svg version="1.1" id="Ebene_1" xmlns="http://www.w3.org/2000/svg" xmlns:xlink="http://www.w3.org/1999/xlink" x="0px" y="0px"
	 viewBox="0 0 100 100" style="enable-background:new 0 0 100 100;" xml:space="preserve">
<g>
	<path d="M31.5,38.2c2.9,0,5.1-0.6,6.4-1.9c1.4-1.2,2.1-3.2,2.1-5.8c0-2.7-0.7-4.7-2.1-5.9c-1.3-1.2-3.5-2-6.5-2h-6.9v21.5h4.3v-6
		H31.5z M28.8,26.8h2.5c1.4,0,2.5,0.3,3.2,0.8c0.7,0.5,1,1.4,1,2.7c0,1.2-0.3,2.2-0.8,2.8s-1.6,0.9-3,0.9h-2.9V26.8z"/>
	<path d="M57,41.2c1.9-2,2.7-4.5,2.7-8c0-3.3-0.9-6-2.8-7.9c-1.9-1.9-4.5-2.8-8.1-2.8h-6.9V44h6.7C52.4,44.2,55.2,43.1,57,41.2z
		 M53.7,38.3c-1,1.1-2.6,1.7-4.5,1.7h-2.8V26.8h2.5c2.2,0,3.8,0.6,5,1.8c1,1.1,1.7,2.8,1.7,4.9C55.4,35.5,54.8,37.1,53.7,38.3z"/>
	<polygon points="75.5,26.9 75.5,22.6 62.1,22.6 62.1,44.2 66.4,44.2 66.4,35.7 75,35.7 75,31.5 66.4,31.5 66.4,26.9 	"/>
	<path d="M81.2,0H18.8c-3.6,0-6.5,2.9-6.5,6.5v76.3c0,3.6,2.9,6.5,6.5,6.5h14.4l-2-2l-2-2H18.9c-1.4,0-2.6-1.1-2.6-2.6V6.5
		c0-1.4,1.1-2.6,2.6-2.6h62.6c1.4,0,2.6,1.1,2.6,2.6v76.3c0,1.4-1.1,2.6-2.6,2.6h-8.9l-2,2l-2,2h12.8c3.6,0,6.5-2.9,6.5-6.5V6.5
		C87.8,2.9,84.8,0,81.2,0z"/>
	<polygon points="72.8,77.1 59.3,77 59.3,54.7 40.7,54.7 40.7,76.7 27.1,76.5 50.3,99.7 	"/>
</g>
</svg>
